<svg xmlns="http://www.w3.org/2000/svg" viewBox="0 0 600 600" width="600" height="600">
  <defs>
    <linearGradient id="bg1" x1="0" y1="0" x2="1" y2="1">
      <stop offset="0" stop-color="#547130"/>
      <stop offset="1" stop-color="#273516"/>
    </linearGradient>
  </defs>
  <rect width="600" height="600" fill="url(#bg1)"/>
  <!-- subtle dot texture -->
  <g fill="#ffffff" opacity="0.06">
    <circle cx="60" cy="80" r="4"/><circle cx="120" cy="140" r="4"/><circle cx="500" cy="90" r="4"/>
    <circle cx="540" cy="480" r="4"/><circle cx="90" cy="520" r="4"/><circle cx="460" cy="540" r="4"/>
    <circle cx="300" cy="60" r="4"/><circle cx="60" cy="300" r="4"/><circle cx="540" cy="300" r="4"/>
  </g>
  <!-- droplet -->
  <path d="M300 190 C 300 190 220 300 220 365 C 220 410 256 446 300 446 C 344 446 380 410 380 365 C 380 300 300 190 300 190 Z"
        fill="#e6b920"/>
  <path d="M300 190 C 300 190 220 300 220 365 C 220 410 256 446 300 446 C 344 446 380 410 380 365 C 380 300 300 190 300 190 Z"
        fill="none" stroke="#f8f9fc" stroke-width="6" opacity="0.5"/>
  <circle cx="268" cy="350" r="16" fill="#f8f9fc" opacity="0.55"/>
  <!-- spray droplets around -->
  <circle cx="180" cy="230" r="10" fill="#f8f9fc" opacity="0.7"/>
  <circle cx="420" cy="230" r="14" fill="#f8f9fc" opacity="0.7"/>
  <circle cx="160" cy="180" r="7" fill="#f8f9fc" opacity="0.5"/>
  <circle cx="440" cy="175" r="7" fill="#f8f9fc" opacity="0.5"/>
  <text x="300" y="510" font-family="Arial, sans-serif" font-size="28" font-weight="700" fill="#f8f9fc" text-anchor="middle" opacity="0.85">Coadyuvantes</text>
</svg>
